<svg width="50" height="60" viewBox="0 0 33 52" fill="none" xmlns="http://www.w3.org/2000/svg">
<path d="M16.8884 22.8906L25.7523 3.08582H28.0898L19.2256 22.8906H16.8884Z" fill="white"/>
<path d="M5.21057 22.5333H27.7895V31.2H16.0785H5.21057V22.5333Z" fill="url(#paint0_linear_59_501)"/>
<path d="M17.3684 31.2H15.6316V32.6857H17.3684V31.2Z" fill="#FF7C03"/>
<path d="M4.04358 45.7166C4.04358 42.7781 5.88897 41.0853 9.06415 41.0853C10.5839 41.0853 12.0358 41.654 13.6234 41.654C15.1431 41.654 15.5773 39.2979 15.5773 37.9979H17.7212C17.7212 39.2437 18.4269 41.654 19.6751 41.654C21.3305 41.654 22.7146 41.0853 24.2343 41.0853C27.2874 41.0853 29.0107 42.7781 29.0107 45.7166C29.0107 46.7729 28.9021 47.4229 28.7394 48.0187L26.4325 47.6937C26.5139 47.0572 26.5683 46.4614 26.5683 45.9603C26.5683 44.6739 25.7134 43.9833 24.2343 43.9833C22.6604 43.9833 21.3034 44.6063 19.7295 44.6063C17.9383 44.6063 16.9206 43.2927 16.8799 41.0583H16.4186C16.3779 43.2927 15.2924 44.6063 13.5691 44.6063C11.9272 44.6063 10.5703 43.9833 9.06415 43.9833C7.42229 43.9833 6.48601 44.6739 6.48601 45.9603C6.48601 46.4614 6.54029 47.0572 6.62171 47.6937L4.31496 48.0187C4.15213 47.4229 4.04358 46.7729 4.04358 45.7166Z" fill="white"/>
<path d="M28.9564 23.2646H26.3783V17.6583H6.45887V23.2646H3.88074V14.7875H28.9564V23.2646Z" fill="white"/>
<path d="M4.04358 27.7604C4.04358 26.7041 4.15213 26.0541 4.31496 25.4584L6.62171 25.7834C6.54029 26.4199 6.48601 27.0156 6.48601 27.5167C6.48601 28.8032 7.42229 29.4937 9.06415 29.4937C10.5703 29.4937 11.9272 28.8708 13.5691 28.8708C15.2924 28.8708 16.3779 30.1845 16.4186 32.4187H16.8799C16.9206 30.1845 17.9383 28.8708 19.7295 28.8708C21.3034 28.8708 22.6604 29.4937 24.2343 29.4937C25.7134 29.4937 26.5683 28.8032 26.5683 27.5167C26.5683 27.0156 26.5139 26.4199 26.4325 25.7834L28.7394 25.4584C28.9021 26.0541 29.0107 26.7041 29.0107 27.7604C29.0107 30.6989 27.2874 32.3917 24.2343 32.3917C22.7146 32.3917 21.3305 31.823 19.6751 31.823C18.4269 31.823 17.7212 34.2334 17.7212 35.4791H15.5773C15.5773 34.1791 15.1431 31.823 13.6234 31.823C12.0358 31.823 10.5839 32.3917 9.06415 32.3917C5.88897 32.3917 4.04358 30.6989 4.04358 27.7604Z" fill="white"/>
<defs>
<linearGradient id="paint0_linear_59_501" x1="11.7961" y1="30.1167" x2="12.7148" y2="21.2037" gradientUnits="userSpaceOnUse">
<stop offset="0.005" stop-color="#FF7C03"/>
<stop offset="0.5025" stop-color="#FF7C03"/>
<stop offset="1" stop-color="#FF2E00"/>
</linearGradient>
</defs>
</svg>
