<?xml version="1.0" standalone="no"?>
<!DOCTYPE svg PUBLIC "-//W3C//DTD SVG 20010904//EN"
 "http://www.w3.org/TR/2001/REC-SVG-20010904/DTD/svg10.dtd">
<svg version="1.0" xmlns="http://www.w3.org/2000/svg"
 width="512.000000pt" height="512.000000pt" viewBox="0 0 512.000000 512.000000"
 preserveAspectRatio="xMidYMid meet">
<metadata>
Created by potrace 1.14, written by Peter Selinger 2001-2017
</metadata>
<g transform="translate(0.000000,512.000000) scale(0.100000,-0.100000)"
fill="#000000" stroke="none">
<path d="M3202 4849 c-10 -4 -34 -44 -54 -90 -20 -46 -50 -113 -66 -149 -17
-36 -68 -150 -115 -255 -47 -104 -99 -220 -116 -258 -17 -37 -31 -69 -31 -72
0 -2 -17 -41 -38 -87 -22 -46 -56 -120 -77 -165 l-37 -81 -652 -1 c-358 0
-657 0 -663 -1 -10 0 -13 -91 -13 -420 l0 -420 60 0 60 0 0 -115 0 -114 -48 6
-49 5 -11 -63 c-15 -91 -9 -273 12 -334 63 -184 226 -285 461 -287 55 0 127 5
160 11 33 6 71 13 85 16 14 2 54 9 90 16 125 22 197 10 238 -40 45 -56 89
-200 87 -283 l-1 -28 108 0 108 0 0 28 c0 41 35 173 57 213 32 59 65 97 95
110 31 12 162 7 241 -10 120 -27 165 -33 245 -33 252 -2 412 105 467 310 16
64 19 223 4 306 l-11 68 -47 -4 -46 -3 -1 113 0 112 63 0 c58 0 63 2 64 23 0
12 1 201 2 420 l2 397 -75 1 c-41 0 -249 0 -462 0 -214 0 -388 4 -388 9 0 7
43 105 117 270 12 25 69 153 128 285 59 132 141 314 181 404 41 90 75 171 76
179 3 13 -12 16 -95 16 -54 1 -106 -2 -115 -5z m-662 -1445 c0 -2 -16 -37 -35
-78 -19 -41 -35 -77 -35 -79 0 -3 -19 -47 -43 -98 -24 -52 -54 -119 -67 -149
-13 -30 -28 -59 -32 -65 -12 -14 -726 -14 -731 0 -3 8 -1 429 2 461 1 8 131
12 471 12 259 0 470 -2 470 -4z m1033 -8 c2 -6 3 -114 3 -241 l-1 -230 -506 0
c-348 -1 -506 2 -504 10 1 5 9 26 18 45 9 19 51 114 94 210 44 96 84 185 91
196 12 22 13 22 406 22 284 0 396 -4 399 -12z"/>
<path d="M2489 1388 c-1 -2 -2 -21 -4 -43 -6 -97 -50 -231 -89 -270 -30 -30
-69 -47 -108 -47 -46 1 -137 9 -178 17 -14 3 -36 8 -50 10 -88 17 -163 27
-215 27 -280 1 -456 -126 -496 -358 -13 -75 -6 -250 11 -300 11 -30 13 -31 48
-24 20 5 60 11 87 14 55 6 96 14 100 18 2 2 0 21 -4 44 -12 64 -6 176 11 209
57 109 193 133 453 80 241 -49 330 -39 415 44 54 52 85 123 95 218 6 53 10 60
28 59 16 -1 21 -9 24 -36 22 -218 127 -323 314 -314 36 1 124 15 195 30 239
49 362 32 422 -58 22 -34 26 -52 28 -118 1 -44 -2 -97 -6 -119 -8 -46 -24 -39
141 -64 l87 -13 11 72 c24 145 8 302 -41 403 -45 93 -165 177 -288 201 -57 12
-193 14 -245 5 -16 -3 -68 -13 -115 -21 -113 -21 -124 -23 -197 -25 -54 -1
-68 2 -97 25 -57 43 -125 213 -126 314 0 21 -3 22 -105 22 -58 0 -105 -1 -106
-2z"/>
</g>
</svg>
